Coordinates
version=1
nRows=16
nColumns=33
inDegrees=yes

Units are S.I. units (second, meters, Newtons, ...)
Angles are in degrees.

endheader
time	ground_thorax_rot_x	ground_thorax_rot_y	ground_thorax_rot_z	ground_thorax_tx	ground_thorax_ty	ground_thorax_tz	clav_prot_r	clav_elev_r	scapula_abduction_r	scapula_elevation_r	scapula_upward_rot_r	scapula_winging_r	shoulder_elv_r	plane_of_elev_r	axial_rot_r	elbow_flexion_r	pro_sup_r	wrist_flex_r	wrist_dev_r	clav_prot_l	clav_elev_l	scapula_abduction_l	scapula_elevation_l	scapula_upward_rot_l	scapula_winging_l	shoulder_elv_l	plane_of_elev_l	axial_rot_l	elbow_flexion_l	pro_sup_l	wrist_flex_l	wrist_dev_l
      6.32000000	     38.18586590	     10.00504092	     12.76787826	   -222.12314076	    836.24178447	      5.72378740	     14.33389834	     37.86514920	     38.26351684	     45.00000000	    -45.00000000	   2791.81580823	  -4067.65842880	    148.16419910	   -118.84618843	   1105.50437691	    161.58759630	     12.12887426	      5.55702303	     11.86471300	    -45.00000000	    -39.26574074	     45.00000000	    -45.00000000	  -1700.63732677	    627.28814550	    137.64588621	   -179.99999979	   1089.27384950	     38.28049316	      5.22791912	    -24.07010724
      6.33000000	     38.18733899	     10.19606756	     13.12585542	   -220.92113307	    836.14756432	      5.85907079	     14.94817297	     37.72138035	     38.44400154	     45.00000000	    -45.00000000	   2791.73569453	  -4067.70208236	    148.12000882	   -118.85923295	   1105.44327612	    161.80279191	     12.22340441	      5.05765534	     11.97031673	    -45.00000000	    -39.30904658	     45.00000000	    -45.00000000	  -1700.42048136	    627.23068803	    137.42704292	   -179.99999979	   1089.27504498	     37.72192455	      5.46914866	    -24.29384097
      6.34000000	     38.16100855	     10.47641152	     13.41844514	   -219.55940128	    835.99511990	      6.00834356	     14.65559410	     37.58333010	     38.36187960	     45.00000000	    -45.00000000	   2791.88422805	  -4067.58288200	    148.18337207	   -119.21435846	   1105.48655138	    162.16139484	     12.14637705	      5.16849023	     12.02589520	    -45.00000000	    -39.44288728	     45.00000000	    -45.00000000	  -1700.40436360	    627.27381341	    137.37705468	   -179.99999979	   1089.46689869	     37.15740804	      5.58751787	    -24.26384949
      6.35000000	     38.19903942	     10.55329991	     13.58636151	   -218.03269086	    835.79393230	      6.17274247	     14.72011810	     37.60920863	     38.49703908	     45.00000000	    -45.00000000	   2791.82857387	  -4067.60428686	    147.99025997	   -119.49324830	   1105.43109655	    162.64093732	     12.11318207	      5.13756358	     12.11025903	    -45.00000000	    -39.41456576	     45.00000000	    -45.00000000	  -1700.49191372	    627.34649307	    137.25311017	   -179.99999979	   1089.41060925	     36.53839117	      5.71332122	    -24.18615198
      6.36000000	     38.23821738	     10.70118448	     13.75054400	   -216.33252658	    835.55292238	      6.35238788	     14.84416588	     37.67255927	     38.58580278	     45.00000000	    -45.00000000	   2791.77467782	  -4067.58503962	    147.85697172	   -119.69636908	   1105.43213574	    163.27291759	     12.05025360	      5.12955861	     12.08564026	    -45.00000000	    -39.39414756	     45.00000000	    -45.00000000	  -1700.63388788	    627.37612675	    137.19720577	   -179.99999979	   1089.45917292	     35.81658777	      5.84498321	    -24.11111312
      6.37000000	     38.21182586	     10.94486537	     14.02689938	   -214.45143384	    835.27836809	      6.54630545	     14.63883855	     37.56585312	     38.61011929	     45.00000000	    -45.00000000	   2791.85347813	  -4067.52519641	    147.82259212	   -120.03804823	   1105.39257594	    164.02237587	     11.97796829	      5.15237696	     12.20058134	    -45.00000000	    -39.47191829	     45.00000000	    -45.00000000	  -1700.64402170	    627.41701757	    137.07901612	   -179.99999979	   1089.52935804	     35.11948366	      6.02730957	    -24.06080117
      6.38000000	     38.24464957	     11.14245762	     14.20348284	   -212.38058123	    834.97202081	      6.75464422	     14.84583156	     37.68038529	     38.77280963	     45.00000000	    -45.00000000	   2791.77843654	  -4067.49820649	    147.72681147	   -120.21571506	   1105.44691996	    164.92995770	     11.88763415	      5.10719392	     12.12795046	    -45.00000000	    -39.49376015	     45.00000000	    -45.00000000	  -1700.82821602	    627.50063187	    137.06238118	   -179.99999979	   1089.64321032	     34.30632248	      6.16079020	    -23.97820531
      6.39000000	     38.17694321	     11.45052396	     14.57178839	   -210.11099862	    834.63193381	      6.97754591	     14.46779710	     37.47830217	     38.81217075	     45.00000000	    -45.00000000	   2791.89974405	  -4067.43600328	    147.69849648	   -120.58676195	   1105.37485665	    165.90202054	     11.79635560	      5.13388089	     12.35137401	    -45.00000000	    -39.61766289	     45.00000000	    -45.00000000	  -1700.73701855	    627.54582241	    136.91622697	   -179.99999979	   1089.71771480	     33.56919714	      6.39669714	    -23.93381670
      6.40000000	     38.28381510	     11.60231757	     14.74446952	   -207.64127167	    834.25087621	      7.21428896	     15.36245463	     37.95561992	     39.19651292	     45.00000000	    -45.00000000	   2791.74045452	  -4067.48671962	    147.63308336	   -120.48642486	   1105.39700077	    167.19064437	     11.68926929	      5.02899752	     11.84989347	    -45.00000000	    -39.40815257	     45.00000000	    -45.00000000	  -1701.15914473	    627.63112449	    137.07099347	   -179.99999979	   1089.90403519	     32.45946083	      6.45800391	    -23.77805724
      6.41000000	     38.23352239	     11.92645312	     15.05789833	   -204.96272143	    833.81953064	      7.46440747	     15.32584981	     37.95709760	     39.22548865	     45.00000000	    -45.00000000	   2791.80493387	  -4067.47538311	    147.55922334	   -120.68454239	   1105.46333609	    168.55980251	     11.55731519	      4.97381528	     11.92394944	    -45.00000000	    -39.52016471	     45.00000000	    -45.00000000	  -1701.30104920	    627.64977792	    137.03480106	   -179.99999979	   1089.98032141	     31.46762793	      6.70489032	    -23.69228538
      6.42000000	     38.21012012	     12.22810309	     15.39733243	   -202.06880707	    833.32119442	      7.72689942	     15.41790298	     38.00402605	     39.41252588	     45.00000000	    -45.00000000	   2791.84920956	  -4067.48811741	    147.51314405	   -120.90071726	   1105.43310413	    170.00904034	     11.42979722	      4.89558170	     11.89923097	    -45.00000000	    -39.54091019	     45.00000000	    -45.00000000	  -1701.41933565	    627.69092649	    137.02515159	   -179.99999979	   1090.07425523	     30.46719144	      6.93947651	    -23.59170159
      6.43000000	     38.18192412	     12.58223945	     15.75738233	   -198.95855831	    832.74338442	      7.99993074	     15.47505667	     38.02598267	     39.52986443	     45.00000000	    -45.00000000	   2791.92291539	  -4067.49607868	    147.46699145	   -121.07097170	   1105.38358671	    171.53850334	     11.28965901	      4.82300191	     11.87393358	    -45.00000000	    -39.55560677	     45.00000000	    -45.00000000	  -1701.55567703	    627.71164038	    136.96553203	   -179.99999979	   1090.10475680	     29.49765517	      7.20490448	    -23.48134418
      6.44000000	     38.15041912	     13.04474446	     16.12585938	   -195.63526408	    832.07392738	      8.28362335	     15.17402738	     37.91575790	     39.51227287	     45.00000000	    -45.00000000	   2791.96316951	  -4067.45258814	    147.28047113	   -121.31388286	   1105.36701833	    173.00659774	     11.13826214	      4.74898516	     12.15777689	    -45.00000000	    -39.75522136	     45.00000000	    -45.00000000	  -1701.65168691	    627.64320094	    136.83865272	   -179.99999979	   1090.07239632	     28.73956299	      7.56622630	    -23.42170540
      6.45000000	     38.09591203	     13.35780392	     16.48809169	   -192.10348028	    831.30331687	      8.57548673	     15.56743950	     38.08393368	     39.75650648	     45.00000000	    -45.00000000	   2792.09013029	  -4067.60159065	    147.30176714	   -121.29730489	   1105.21057928	    174.66563777	     10.99618978	      4.64332907	     11.88432435	    -45.00000000	    -39.68688475	     45.00000000	    -44.73252675	  -1701.87308327	    627.66407986	    136.88147439	   -179.99999979	   1090.10285264	     27.86067007	      7.79537492	    -23.27948526
      6.46000000	     38.02990711	     13.76866157	     16.94128430	   -188.35433118	    830.41178111	      8.87371852	     15.62921597	     38.15215794	     39.94358704	     45.00000000	    -45.00000000	   2792.18703275	  -4067.67131728	    147.25554974	   -121.15174161	   1105.17898680	    176.46598291	     10.81876767	      4.56202794	     11.88447342	    -45.00000000	    -39.74829577	     45.00000000	    -44.47131453	  -1701.96697735	    627.56619418	    136.91062728	   -179.99999979	   1090.18312283	     27.08305242	      8.09636743	    -23.18410566
      6.47000000	     37.97803293	     14.23091322	     17.37149913	   -184.38422262	    829.37794751	      9.17272583	     15.63928343	     38.15774680	     40.06362943	     45.00000000	    -45.00000000	   2792.24566580	  -4067.75090696	    147.16127130	   -120.89454272	   1105.13837599	    178.32823079	     10.63627111	      4.45396869	     11.94498774	    -45.00000000	    -39.83079401	     45.00000000	    -44.27094413	  -1702.16850516	    627.45554233	    136.90585235	   -179.99999979	   1090.15987753	     26.44716020	      8.41509558	    -23.07896566
